<?xml version="1.0" encoding="UTF-8" standalone="no"?>
<svg
   xmlns:dc="http://purl.org/dc/elements/1.1/"
   xmlns:cc="http://creativecommons.org/ns#"
   xmlns:rdf="http://www.w3.org/1999/02/22-rdf-syntax-ns#"
   xmlns:svg="http://www.w3.org/2000/svg"
   xmlns="http://www.w3.org/2000/svg"
   xmlns:sodipodi="http://sodipodi.sourceforge.net/DTD/sodipodi-0.dtd"
   xmlns:inkscape="http://www.inkscape.org/namespaces/inkscape"
   inkscape:version="1.0 (4035a4fb49, 2020-05-01)"
   sodipodi:docname="brand.svg"
   xml:space="preserve"
   style="enable-background:new 0 0 290.476 290.476;"
   viewBox="0 0 290.476 290.476"
   y="0px"
   x="0px"
   id="Layer_1"
   version="1.1"><metadata
   id="metadata55"><rdf:RDF><cc:Work
       rdf:about=""><dc:format>image/svg+xml</dc:format><dc:type
         rdf:resource="http://purl.org/dc/dcmitype/StillImage" /></cc:Work></rdf:RDF></metadata><defs
   id="defs53">
	

		
		
		
		
		
		
		
	</defs><sodipodi:namedview
   inkscape:current-layer="Layer_1"
   inkscape:cy="112.23604"
   inkscape:cx="108.17825"
   inkscape:zoom="2.9262313"
   showgrid="false"
   id="namedview51"
   inkscape:window-height="480"
   inkscape:window-width="640"
   inkscape:pageshadow="2"
   inkscape:pageopacity="0"
   guidetolerance="10"
   gridtolerance="10"
   objecttolerance="10"
   borderopacity="1"
   bordercolor="#666666"
   pagecolor="#ffffff" />
<path
   d="M 161.9043 42.857422 L 0 204.76172 L 85.714844 290.47656 L 247.61914 128.57031 L 233.33203 57.142578 L 161.9043 42.857422 z M 209.38672 62.171875 A 18.651299 18.651299 0 0 1 228.03906 80.822266 A 18.651299 18.651299 0 0 1 209.38672 99.474609 A 18.651299 18.651299 0 0 1 190.73633 80.822266 A 18.651299 18.651299 0 0 1 209.38672 62.171875 z "
   style="fill:#f9ba48"
   id="polygon2" /><path
   id="path4"
   d="m 76.757,213.729 c -0.138,-3.762 -1.667,-7.276 -4.343,-9.952 -5.795,-5.795 -15.224,-5.795 -21.019,0 L 36.124,219.048 71.429,254.353 86.7,239.081 c 2.81,-2.805 4.357,-6.538 4.357,-10.51 0,-3.971 -1.548,-7.705 -4.357,-10.51 -2.752,-2.751 -6.329,-4.199 -9.943,-4.332 z m 3.21,18.619 -8.538,8.538 -21.838,-21.838 8.538,-8.538 c 2.086,-2.076 5.467,-2.076 7.552,0 1.01,1.01 1.567,2.348 1.567,3.776 0,1.429 -0.557,2.767 -1.567,3.776 l -7.143,7.143 6.733,6.733 7.143,-7.143 c 2.086,-2.076 5.467,-2.076 7.552,0 1.01,1.01 1.567,2.348 1.567,3.776 0,1.429 -0.557,2.767 -1.566,3.777 z"
   style="fill:#333333" /><path
   id="path6"
   d="m 158.538,96.633 -8.129,8.129 35.305,35.305 8.129,-8.129 c 4.714,-4.714 7.314,-10.986 7.314,-17.652 0,-6.666 -2.6,-12.938 -7.314,-17.652 C 184.105,86.9 168.276,86.9 158.538,96.633 Z m 28.572,28.572 -1.395,1.395 -21.838,-21.838 1.395,-1.395 c 6.019,-6.019 15.819,-6.019 21.838,0 2.914,2.919 4.524,6.795 4.524,10.919 -10e-4,4.124 -1.61,8 -4.524,10.919 z"
   style="fill:#333333" /><path
   id="path8"
   d="M 106.733,219.048 78.162,190.477 86.7,181.939 c 2.086,-2.076 5.467,-2.076 7.552,0 1.01,1.01 1.567,2.348 1.567,3.776 0,1.429 -0.557,2.767 -1.567,3.776 l -7.143,7.143 6.733,6.733 6.895,-6.895 17.857,10.714 6.943,-6.943 -20.419,-12.252 c 0.114,-0.752 0.224,-1.505 0.224,-2.281 0,-3.971 -1.548,-7.705 -4.357,-10.51 -5.795,-5.795 -15.224,-5.795 -21.019,0 L 64.695,190.476 100,225.781 Z"
   style="fill:#333333" /><path
   id="path10"
   d="m 135.305,190.476 -14.286,-14.286 12.314,-12.314 14.286,14.286 6.733,-6.733 -35.305,-35.305 -25.781,25.781 35.305,35.305 z m -28.572,-28.571 12.314,-12.314 7.552,7.552 -12.314,12.314 z"
   style="fill:#333333" /><polygon
   id="polygon12"
   points="127.01,128.162 121.838,133.333 157.143,168.638 163.876,161.905 143.057,141.086 177.752,148.029 182.924,142.857 147.619,107.552 140.886,114.286 161.7,135.105 "
   style="fill:#333333" /><path
   id="path14"
   d="m 240.476,0 c -26.767,0 -48.624,21.157 -49.881,47.619 h 9.524 c 1.243,-21.21 18.838,-38.095 40.357,-38.095 22.319,0 40.476,18.157 40.476,40.476 0,22.319 -18.157,40.476 -40.476,40.476 -4.643,0 -9.114,-0.867 -13.338,-2.333 0.914,-2.224 1.433,-4.643 1.433,-7.19 0,-10.505 -8.543,-19.048 -19.048,-19.048 -10.505,0 -19.048,8.543 -19.048,19.048 0,10.505 8.544,19.047 19.049,19.047 4.333,0 8.286,-1.51 11.49,-3.957 6.043,2.548 12.624,3.957 19.462,3.957 27.571,0 50,-22.429 50,-50 0,-27.571 -22.428,-50 -50,-50 z m -21.428,80.952 c 0,1.062 -0.214,2.062 -0.533,3.014 -4.738,-3.067 -8.81,-7.138 -11.962,-12.019 0.938,-0.31 1.924,-0.519 2.971,-0.519 5.252,0.001 9.524,4.272 9.524,9.524 z m -9.524,9.524 c -5.252,0 -9.524,-4.271 -9.524,-9.524 0,-0.505 0.071,-0.986 0.148,-1.467 3.071,4.214 6.767,7.824 10.89,10.838 -0.495,0.082 -0.995,0.153 -1.514,0.153 z"
   style="fill:#333333" />
<g
   id="g20">
</g>
<g
   id="g22">
</g>
<g
   id="g24">
</g>
<g
   id="g26">
</g>
<g
   id="g28">
</g>
<g
   id="g30">
</g>
<g
   id="g32">
</g>
<g
   id="g34">
</g>
<g
   id="g36">
</g>
<g
   id="g38">
</g>
<g
   id="g40">
</g>
<g
   id="g42">
</g>
<g
   id="g44">
</g>
<g
   id="g46">
</g>
<g
   id="g48">
</g>
</svg>
