<svg xmlns="http://www.w3.org/2000/svg" width="512" height="512" viewBox="0 0 64 64"><g id="Twotone"><g id="Stroke_copy_3" data-name="Stroke copy 3"><g><path d="M40,31A15.983,15.983,0,0,1,25.149,9.067a15.995,15.995,0,1,0,22.7,19.866A15.921,15.921,0,0,1,40,31Z" style="fill:#cff09e"/><path d="M36,15H26v4a3.992,3.992,0,0,0,3,3.859V19h8v3.859A3.992,3.992,0,0,0,36,15Z" style="fill:#79bd9a"/><path d="M31,27h4a4,4,0,0,1,4,4v2a0,0,0,0,1,0,0H27a0,0,0,0,1,0,0V31A4,4,0,0,1,31,27Z" style="fill:#79bd9a"/><g><path d="M10,34a1.992,1.992,0,0,1-1.82-2.82,2,2,0,1,0,2.64,2.64A1.99,1.99,0,0,1,10,34Z" style="fill:#cff09e"/><path d="M8.178,35.982a2,2,0,0,0,1.472-.865A1.975,1.975,0,0,0,9,35a2,2,0,0,0-2,2v1.651a5.905,5.905,0,0,0,4,0V38A2.99,2.99,0,0,1,8.178,35.982Z" style="fill:#cff09e"/><path d="M9,27A5.994,5.994,0,0,0,7,38.646V37a2,2,0,0,1,2-2,2,2,0,1,1,2-2,2,2,0,0,1-2,2,2,2,0,0,1,2,2v1.646A5.994,5.994,0,0,0,9,27Z" style="fill:#79bd9a"/></g><g><path d="M10,10A1.992,1.992,0,0,1,8.18,7.18a2,2,0,1,0,2.64,2.64A1.99,1.99,0,0,1,10,10Z" style="fill:#cff09e"/><path d="M8.178,11.982a2,2,0,0,0,1.472-.865A1.975,1.975,0,0,0,9,11a2,2,0,0,0-2,2v1.651a5.905,5.905,0,0,0,4,0V14A2.99,2.99,0,0,1,8.178,11.982Z" style="fill:#cff09e"/><path d="M9,3A5.994,5.994,0,0,0,7,14.646V13a2,2,0,0,1,2-2,2,2,0,1,1,2-2,2,2,0,0,1-2,2,2,2,0,0,1,2,2v1.646A5.994,5.994,0,0,0,9,3Z" style="fill:#79bd9a"/></g><g><path d="M56,10a1.992,1.992,0,0,1-1.82-2.82,2,2,0,1,0,2.64,2.64A1.99,1.99,0,0,1,56,10Z" style="fill:#cff09e"/><path d="M54.178,11.982a2,2,0,0,0,1.472-.865A1.975,1.975,0,0,0,55,11a2,2,0,0,0-2,2v1.651a5.905,5.905,0,0,0,4,0V14A2.99,2.99,0,0,1,54.178,11.982Z" style="fill:#cff09e"/><path d="M55,3a5.994,5.994,0,0,0-2,11.646V13a2,2,0,0,1,2-2,2,2,0,1,1,2-2,2,2,0,0,1-2,2,2,2,0,0,1,2,2v1.646A5.994,5.994,0,0,0,55,3Z" style="fill:#79bd9a"/></g><g><path d="M56,44a1.992,1.992,0,0,1-1.82-2.82,2,2,0,1,0,2.64,2.64A1.99,1.99,0,0,1,56,44Z" style="fill:#cff09e"/><path d="M54.178,45.982a2,2,0,0,0,1.472-.865A1.975,1.975,0,0,0,55,45a2,2,0,0,0-2,2v1.651a5.905,5.905,0,0,0,4,0V48A2.99,2.99,0,0,1,54.178,45.982Z" style="fill:#cff09e"/><path d="M55,37a5.994,5.994,0,0,0-2,11.646V47a2,2,0,0,1,2-2,2,2,0,1,1,2-2,2,2,0,0,1-2,2,2,2,0,0,1,2,2v1.646A5.994,5.994,0,0,0,55,37Z" style="fill:#79bd9a"/></g><g><path d="M34,56a1.992,1.992,0,0,1-1.82-2.82,2,2,0,1,0,2.64,2.64A1.99,1.99,0,0,1,34,56Z" style="fill:#cff09e"/><path d="M32.178,57.982a2,2,0,0,0,1.472-.865A1.975,1.975,0,0,0,33,57a2,2,0,0,0-2,2v1.651a5.905,5.905,0,0,0,4,0V60A2.99,2.99,0,0,1,32.178,57.982Z" style="fill:#cff09e"/><path d="M33,49a5.994,5.994,0,0,0-2,11.646V59a2,2,0,0,1,2-2,2,2,0,1,1,2-2,2,2,0,0,1-2,2,2,2,0,0,1,2,2v1.646A5.994,5.994,0,0,0,33,49Z" style="fill:#79bd9a"/></g><g><path d="M10,56a1.992,1.992,0,0,1-1.82-2.82,2,2,0,1,0,2.64,2.64A1.99,1.99,0,0,1,10,56Z" style="fill:#cff09e"/><path d="M8.178,57.982a2,2,0,0,0,1.472-.865A1.975,1.975,0,0,0,9,57a2,2,0,0,0-2,2v1.651a5.905,5.905,0,0,0,4,0V60A2.99,2.99,0,0,1,8.178,57.982Z" style="fill:#cff09e"/><path d="M9,49A5.994,5.994,0,0,0,7,60.646V59a2,2,0,0,1,2-2,2,2,0,1,1,2-2,2,2,0,0,1-2,2,2,2,0,0,1,2,2v1.646A5.994,5.994,0,0,0,9,49Z" style="fill:#79bd9a"/></g><path d="M35,26a4,4,0,0,1-4-4,2,2,0,0,1,2-2h4V19H29v4a3.988,3.988,0,0,0,6.707,2.929A4.015,4.015,0,0,1,35,26Z" style="fill:#cff09e"/></g></g><g id="Stroke_Close_copy" data-name="Stroke Close copy"><g><path d="M55,36a6.972,6.972,0,0,0-4.452,1.6l-4.329-3.936a16.925,16.925,0,0,0,1.626-18.927l1.854-1.18a7.029,7.029,0,1,0-1.075-1.687l-1.863,1.186a16.961,16.961,0,0,0-27.907.532l-3.369-1.965a7.028,7.028,0,1,0-1.011,1.726l3.379,1.971A16.777,16.777,0,0,0,16.966,28.6L15,29.416a7.082,7.082,0,1,0,.771,1.846l1.966-.82a17.066,17.066,0,0,0,3.94,5.2L12.228,48.8a7.024,7.024,0,1,0,1.623,1.169L23.242,36.9A16.872,16.872,0,0,0,32,39.949V48.08a7,7,0,1,0,2,0V39.949a16.934,16.934,0,0,0,10.873-4.8l4.33,3.936A7,7,0,1,0,55,36ZM54,9a1,1,0,1,1,1,1A1,1,0,0,1,54,9Zm0,4.9V13a1,1,0,0,1,2,0v.9a5,5,0,0,1-2,0ZM55,4a4.983,4.983,0,0,1,3,8.976A2.979,2.979,0,0,0,57.22,11a3,3,0,1,0-4.44,0A2.979,2.979,0,0,0,52,12.976,4.983,4.983,0,0,1,55,4ZM8,9a1,1,0,1,1,1,1A1,1,0,0,1,8,9Zm0,4.9V13a1,1,0,0,1,2,0v.9a5,5,0,0,1-2,0Zm4-.923A2.979,2.979,0,0,0,11.22,11a3,3,0,1,0-4.44,0A2.979,2.979,0,0,0,6,12.976a5,5,0,1,1,6,0ZM8,33a1,1,0,1,1,1,1A1,1,0,0,1,8,33Zm0,4.9V37a1,1,0,0,1,2,0v.9a5,5,0,0,1-2,0Zm4-.923A2.979,2.979,0,0,0,11.22,35a3,3,0,1,0-4.44,0A2.979,2.979,0,0,0,6,36.976a5,5,0,1,1,6,0ZM8,55a1,1,0,1,1,1,1A1,1,0,0,1,8,55Zm0,4.9V59a1,1,0,0,1,2,0v.9a5,5,0,0,1-2,0ZM14,55a4.978,4.978,0,0,1-2,3.976A2.979,2.979,0,0,0,11.22,57a3,3,0,1,0-4.44,0A2.979,2.979,0,0,0,6,58.976,4.992,4.992,0,1,1,14,55Zm18,0a1,1,0,1,1,1,1A1,1,0,0,1,32,55Zm0,4.9V59a1,1,0,0,1,2,0v.9a5,5,0,0,1-2,0ZM38,55a4.978,4.978,0,0,1-2,3.976A2.979,2.979,0,0,0,35.22,57a3,3,0,1,0-4.44,0A2.979,2.979,0,0,0,30,58.976,4.992,4.992,0,1,1,38,55ZM33,38A14.992,14.992,0,0,1,19.792,15.9l.131-.224A15,15,0,1,1,33,38Zm21,5a1,1,0,1,1,1,1A1,1,0,0,1,54,43Zm0,4.9V47a1,1,0,0,1,2,0v.9a5,5,0,0,1-2,0Zm4-.923A2.979,2.979,0,0,0,57.22,45a3,3,0,1,0-4.44,0A2.979,2.979,0,0,0,52,46.976a5,5,0,1,1,6,0Z" style="fill:#3b8686"/><path d="M41,19a5.006,5.006,0,0,0-5-5H26a1,1,0,0,0-1,1v4a4.982,4.982,0,0,0,3.059,4.585,4.957,4.957,0,0,0,1.231,2.736A4.993,4.993,0,0,0,26,31v2a1,1,0,0,0,2,0V31a3,3,0,0,1,3-3h4a3,3,0,0,1,3,3v2a1,1,0,0,0,2,0V31a4.993,4.993,0,0,0-3.29-4.679,4.957,4.957,0,0,0,1.231-2.736A4.982,4.982,0,0,0,41,19ZM27,19V16h9a3,3,0,0,1,3,3,2.972,2.972,0,0,1-1,2.218V21a3,3,0,0,0-3-3H31a3,3,0,0,0-3,3v.218A2.972,2.972,0,0,1,27,19Zm9,2v2a3,3,0,0,1-6,0V21a1,1,0,0,1,1-1h4A1,1,0,0,1,36,21Z" style="fill:#3b8686"/></g></g></g></svg>