<svg xmlns="http://www.w3.org/2000/svg" id="Layer_1" data-name="Layer 1" viewBox="0 0 58.57 32.74"><defs><style>.cls-1{fill:#fff}.cls-2{fill:none;stroke:#edf1f4;stroke-linecap:round;stroke-miterlimit:10;stroke-width:2px}</style></defs><title>hr-top</title><path d="M18.09,32.74h22.4v-3L49,26.6a13.21,13.21,0,0,0-9.2-24.77c-4.95,1.84-8.27,6.27-10.48,11-2.21-4.78-5.53-9.21-10.48-11h0A13.21,13.21,0,0,0,9.61,26.6l8.48,3.15Z" class="cls-1"/><path d="M40.48,29.74,49,26.6a13.21,13.21,0,0,0-9.2-24.77c-4.95,1.84-8.27,6.27-10.48,11-2.21-4.78-5.53-9.21-10.48-11h0A13.21,13.21,0,0,0,9.61,26.6l8.48,3.15m22.4,0L49,26.6a13.21,13.21,0,0,0-9.2-24.77c-4.95,1.84-8.27,6.27-10.48,11-2.21-4.78-5.53-9.21-10.48-11h0A13.21,13.21,0,0,0,9.61,26.6l8.48,3.15m24.63-20A4.72,4.72,0,1,1,46,18.64L34.81,22.79C36.19,17.45,38.71,11.28,42.72,9.79ZM9.79,12.57a4.72,4.72,0,0,1,6.07-2.78c4,1.49,6.53,7.66,7.91,13L12.57,18.64A4.73,4.73,0,0,1,9.79,12.57Z" class="cls-2"/></svg>