<svg xmlns="http://www.w3.org/2000/svg" width="512pt" height="512pt" viewBox="0 -31 512 512"><path fill="#ff9100" d="m512 120-140.285156 30-61.074219 135 70.179687 142.5 131.179688 22.5zm0 0"/><path fill="#fdbf00" d="m0 450 152.789062-15.59375 48.570313-149.40625-61.074219-135-140.285156-30zm0 0"/><path fill="#ffda2d" d="m512 450h-512l256-210zm0 0"/><path fill="#fdbf00" d="m512 450h-256v-210zm0 0"/><path fill="#fff5f5" d="m512 120-201.398438 165-54.601562 45-54.601562-45-201.398438-165zm0 0"/><path fill="#efe2dd" d="m512 120-201.398438 165-54.601562 45v-210zm0 0"/><path fill="#61d7a8" d="m256 0c-57.898438 0-105 47.101562-105 105s47.101562 105 105 105 105-47.101562 105-105-47.101562-105-105-105zm0 0"/><path fill="#00ab94" d="m361 105c0 57.898438-47.101562 105-105 105v-210c57.898438 0 105 47.101562 105 105zm0 0"/><path fill="#fff5f5" d="m311.5 85.5-55.5 55.800781-15 15-40.5-40.800781 21-21 19.5 19.199219 15-15 34.5-34.199219zm0 0"/><path fill="#efe2dd" d="m311.5 85.5-55.5 55.800781v-42.601562l34.5-34.199219zm0 0"/></svg>