<svg xmlns="http://www.w3.org/2000/svg" xmlns:xlink="http://www.w3.org/1999/xlink" id="Layer_1" x="0" y="0" version="1.1" viewBox="0 0 163.8 163.8" xml:space="preserve" style="enable-background:new 0 0 163.8 163.8"><style type="text/css">.st0{fill:#f46800}.st1{fill:#930e00}.st2{fill:#fff}</style><title>over-ribbon</title><polygon points="0 153.8 153.8 0 90.8 0 0 90.8" class="st0"/><polygon points="0 153.8 10 163.8 10 143.9" class="st1"/><polygon points="153.8 0 163.8 9.9 143.9 9.9" class="st1"/><path d="M30.8,106.8l-3.3,3.3L11.7,94.3L15,91L30.8,106.8z" class="st2"/><path d="M23,85.4l2.9,2.9l2-2l2.3,2.3l-2,2l5.9,5.9c0.3,0.4,0.7,0.6,1.2,0.7c0.5,0,0.9-0.3,1.2-0.7	c0.3-0.3,0.6-0.6,0.9-1l2.4,2.4c-0.4,0.8-1,1.5-1.7,2.2c-2.2,2.2-4.4,2.2-6.7,0l-6.3-6.3l-1.7,1.7l-2.3-2.3l1.7-1.7l-2.9-2.9	L23,85.4z" class="st2"/><path d="M31.8,83.9l-2.3,0.6c-0.3-1.5-1-2.9-2.1-4l-1.8-1.8l2.5-2.5l1.7,1.7c0.7,0.8,1.3,1.7,1.6,2.7	C31.7,81.6,31.9,82.8,31.8,83.9z" class="st2"/><path d="M47.8,83.3c-0.4-0.4-1-0.5-1.5-0.3c-0.9,0.3-1.7,0.7-2.4,1.2c-3.4,2.2-6,2.4-7.8,0.6c-1-1-1.5-2.4-1.3-3.9	c0.2-1.7,1.1-3.3,2.4-4.4c1.2-1.4,2.8-2.3,4.6-2.6c1.5-0.2,3,0.3,4.1,1.4l-3.2,3.2c-0.4-0.4-1-0.7-1.6-0.7c-0.7,0.1-1.3,0.4-1.8,0.9	c-0.5,0.4-0.8,1-0.9,1.6c0,0.5,0.1,1,0.5,1.3c0.4,0.4,0.9,0.5,1.3,0.3c0.8-0.2,1.6-0.6,2.2-1.1c0.8-0.5,1.6-1,2.5-1.4	c2.3-1.1,4.2-0.8,5.7,0.7c1.1,1,1.5,2.5,1.2,4c-0.3,1.8-1.2,3.4-2.6,4.6c-0.9,0.9-2,1.6-3.2,2.1c-1,0.4-2.2,0.5-3.2,0.3	s-1.9-0.6-2.6-1.3l3-3c0.5,0.5,1.2,0.7,1.9,0.7c0.8-0.1,1.5-0.5,2-1.1c0.5-0.5,0.9-1,1-1.7C48.4,84.2,48.2,83.7,47.8,83.3z" class="st2"/><path d="M55.7,70c-1.1-1.1-1.9-2.4-2.4-3.8c-0.5-1.3-0.5-2.7-0.2-4.1c0.4-1.4,1.1-2.7,2.2-3.7c1.4-1.5,3.3-2.4,5.4-2.4	c2.1,0,4.1,0.8,5.6,2.3l0.8,0.8c1.7,1.5,2.7,3.6,2.8,5.9c-0.1,4.5-3.7,8-8.1,8.1c-2.3-0.2-4.5-1.2-6-2.9L55.7,70z M59,67.1	c0.8,1,2,1.6,3.2,1.9c1.8,0.2,3.4-1,3.6-2.8c0-0.3,0-0.5,0-0.8c-0.4-1.3-1.1-2.5-2.2-3.4c-0.8-1-2-1.6-3.2-1.9c-1-0.2-2,0.2-2.7,0.9	s-1.1,1.7-0.9,2.7C57.3,65,58,66.2,59,67.1z" class="st2"/><path d="M75.4,54.6l-5.8-10.1l3.3-3.3L80.7,57l-3,3l-15.8-7.8l3.3-3.3L75.4,54.6z" class="st2"/><path d="M91.8,46.3c-1.5,1.6-3.6,2.6-5.8,2.6s-4.4-1-5.9-2.6L79.9,46c-1.1-1.1-2-2.4-2.5-3.9c-0.5-1.3-0.5-2.7-0.2-4.1	c0.4-1.4,1.1-2.6,2.1-3.6c1.4-1.5,3.3-2.3,5.3-2.3c2.2,0.2,4.2,1.3,5.7,2.9l1.3,1.3L84,43.8c0.8,0.6,1.8,1,2.8,0.9s2-0.5,2.6-1.2	c1.2-1,1.8-2.6,1.6-4.2l3.3,0.2c0.2,1.2,0.1,2.4-0.3,3.5C93.5,44.3,92.8,45.4,91.8,46.3z M81.8,37c-0.6,0.6-0.9,1.3-0.9,2.2	c0.1,0.9,0.5,1.8,1.1,2.6l4.4-4.4l-0.3-0.3c-0.6-0.6-1.3-1-2.1-1.1C83.1,36,82.3,36.4,81.8,37z" class="st2"/><path d="M96.2,23.8c-0.4,0.3-0.8,0.6-1.2,1c-1.2,1.2-1.6,2.4-1.1,3.5l7.7,7.7l-3.2,3.2L86.6,27.4l3-3l1.5,1.3	c-0.5-1.5-0.1-3.1,1-4.2c0.3-0.3,0.7-0.6,1.1-0.8L96.2,23.8z" class="st2"/><path d="M105.6,25.8c0.5-0.5,1.1-0.8,1.8-0.8c1.3,0,2.4,1.1,2.4,2.4c-0.1,1.4-1.2,2.5-2.6,2.6c-0.6,0-1.2-0.2-1.7-0.7	c-0.5-0.4-0.7-1-0.7-1.7C104.8,26.9,105.1,26.3,105.6,25.8z M105.1,22.8l-2.6,2.6L91.1,14.8l3.3-3.3L105.1,22.8z" class="st2"/></svg>